<mxfile host="app.diagrams.net" modified="2023-10-11T01:24:52.689Z" agent="Mozilla/5.0 (Macintosh; Intel Mac OS X 10_15_7) AppleWebKit/537.36 (KHTML, like Gecko) Chrome/117.0.0.0 Safari/537.36" version="21.2.9" etag="rjT8ZicIdnXpwRC4zarX" type="github">
  <diagram name="페이지-1" id="5J-g_aUE43kBaGXNao4D">
    <mxGraphModel>
      <root>
        <mxCell id="0" />
        <mxCell id="1" parent="0" />
      </root>
    </mxGraphModel>
  </diagram>
</mxfile>
